<svg id="svg" fill="#0f7b59" stroke="#0f7b59" width="200" height="200" version="1.1" viewBox="144 144 512 512" xmlns="http://www.w3.org/2000/svg">
    <g id="IconSvg_bgCarrier" stroke-width="0"></g>
    <g id="IconSvg_tracerCarrier" stroke-linecap="round" stroke-linejoin="round" stroke="#CCCCCC" stroke-width="0">
      <path xmlns="http://www.w3.org/2000/svg" d="m525.11 483.23c-14.273 4.8281-28.969 7.3477-43.77 7.3477-75.258 0-136.45-61.191-136.45-136.45 0-33.168 12.176-65.18 34.219-90.16 3.1484-3.5703 3.4648-8.8164 0.83984-12.805-2.625-3.9883-7.6602-5.668-12.07-4.0938-64.027 21.621-106.95 81.555-106.95 149.04 0 86.801 70.637 157.44 157.44 157.44 45.027 0 87.957-19.418 117.98-53.426 3.1484-3.5703 3.4648-8.8164 0.83984-12.805s-7.5586-5.5625-12.074-4.0938zm-106.64 49.332c-75.258 0-136.45-61.191-136.45-136.45 0-45.449 22.461-86.801 58.465-111.89-10.707 21.621-16.48 45.449-16.48 69.902 0 86.801 70.637 157.44 157.44 157.44 3.3594 0 6.7188-0.10547 9.9727-0.31641-21.625 13.754-46.922 21.309-72.949 21.309z"></path>

      </g>
     <g id="IconSvg_iconCarrier">
      <path xmlns="http://www.w3.org/2000/svg" d="m525.11 483.23c-14.273 4.8281-28.969 7.3477-43.77 7.3477-75.258 0-136.45-61.191-136.45-136.45 0-33.168 12.176-65.18 34.219-90.16 3.1484-3.5703 3.4648-8.8164 0.83984-12.805-2.625-3.9883-7.6602-5.668-12.07-4.0938-64.027 21.621-106.95 81.555-106.95 149.04 0 86.801 70.637 157.44 157.44 157.44 45.027 0 87.957-19.418 117.98-53.426 3.1484-3.5703 3.4648-8.8164 0.83984-12.805s-7.5586-5.5625-12.074-4.0938zm-106.64 49.332c-75.258 0-136.45-61.191-136.45-136.45 0-45.449 22.461-86.801 58.465-111.89-10.707 21.621-16.48 45.449-16.48 69.902 0 86.801 70.637 157.44 157.44 157.44 3.3594 0 6.7188-0.10547 9.9727-0.31641-21.625 13.754-46.922 21.309-72.949 21.309z"></path>

      </g>
      </svg>