<svg id="svg" fill="#ffffff" stroke="#ffffff" width="200" height="200" version="1.1" viewBox="144 144 512 512" xmlns="http://www.w3.org/2000/svg">
    <g id="IconSvg_bgCarrier" stroke-width="0"></g>
    <g id="IconSvg_tracerCarrier" stroke-linecap="round" stroke-linejoin="round" stroke="#CCCCCC" stroke-width="0">
      <defs xmlns="http://www.w3.org/2000/svg">
  <clipPath id="a">
   <path d="m148.09 148.09h503.81v503.81h-503.81z"></path>
  </clipPath>
 </defs>
<g xmlns="http://www.w3.org/2000/svg" clip-path="url(#a)">
  <path d="m398.25 265.35c-77.586 0-140.75 63.109-140.75 140.75 0 77.586 63.109 140.75 140.75 140.75 77.586 0 140.75-63.109 140.75-140.75-0.054688-77.586-63.164-140.75-140.75-140.75zm0 257.84c-64.594 0-117.1-52.555-117.1-117.1 0-64.594 52.555-117.1 117.1-117.1 64.594 0 117.1 52.555 117.1 117.1-0.003906 64.598-52.559 117.1-117.1 117.1zm-11.828-307.8v-55.469c0-6.5234 5.3047-11.828 11.828-11.828s11.828 5.3047 11.828 11.828v55.523c0 6.5234-5.3047 11.828-11.828 11.828-6.5234-0.003907-11.828-5.3594-11.828-11.883zm127.91 54.625c-4.9844-4.2422-5.5703-11.668-1.3242-16.652l36.008-42.215c4.2422-4.9844 11.668-5.5703 16.652-1.3242 4.9844 4.2422 5.5703 11.668 1.3242 16.652l-36.008 42.215c-2.332 2.7578-5.6758 4.1367-8.9609 4.1367-2.7578 0-5.4648-0.90234-7.6914-2.8125zm128.87 108.98-54.836 8.75c-0.63672 0.10547-1.2734 0.16016-1.8555 0.16016-5.6758 0-10.711-4.1367-11.668-9.9688-1.0078-6.418 3.3398-12.516 9.8125-13.523l54.836-8.75c6.418-1.0078 12.516 3.3398 13.523 9.8125 1.0039 6.4688-3.3438 12.512-9.8125 13.52zm-24.766 161.59c-2.2266 3.6602-6.0977 5.6758-10.078 5.6758-2.1211 0-4.2422-0.58203-6.1523-1.75l-47.359-28.957c-5.5703-3.3945-7.3203-10.66-3.9258-16.227 3.3945-5.5703 10.66-7.3203 16.227-3.9258l47.359 28.957c5.5703 3.3945 7.3203 10.66 3.9297 16.227zm-132.43 95.832c2.0156 6.2031-1.3789 12.887-7.5312 14.902-1.2695 0.37109-2.4883 0.58203-3.7109 0.58203-4.9844 0-9.5977-3.1836-11.242-8.1133l-17.234-52.766c-2.0156-6.2031 1.3789-12.887 7.5312-14.902 6.2031-2.0156 12.887 1.3242 14.902 7.5312zm-149.39-49.48-21.105 51.336c-1.8555 4.5625-6.2578 7.3203-10.926 7.3203-1.4844 0-3.0234-0.26562-4.5078-0.90234-6.0469-2.4922-8.9102-9.3867-6.418-15.434l21.105-51.336c2.4922-6.0469 9.3867-8.9102 15.434-6.418 6.0469 2.4961 8.9102 9.3906 6.418 15.434zm-97.527-99.117c2.9688 5.7812 0.6875 12.941-5.0898 15.91l-49.375 25.348c-1.75 0.85156-3.6055 1.2734-5.4102 1.2734-4.2969 0-8.4336-2.332-10.5-6.418-2.9688-5.7812-0.6875-12.941 5.0898-15.91l49.375-25.348c5.832-2.9688 12.941-0.6875 15.91 5.1445zm-29.168-114.07-53.988-12.781c-6.3633-1.4844-10.289-7.8477-8.75-14.211 1.5391-6.3633 7.8477-10.234 14.211-8.75l54.039 12.781c6.3633 1.4844 10.289 7.8477 8.75 14.211-1.2734 5.4102-6.1523 9.0703-11.508 9.0703-0.89844 0-1.8516-0.10547-2.7539-0.32031zm66.078-114.5-32.828-44.758c-3.8711-5.25-2.7031-12.676 2.5469-16.492 5.25-3.8711 12.621-2.7031 16.492 2.5469l32.828 44.758c3.8711 5.25 2.7031 12.676-2.5469 16.492-2.1211 1.5391-4.5625 2.2812-6.9492 2.2812-3.6562-0.003906-7.2617-1.6445-9.543-4.8281z"></path>
 </g>

      </g>
     <g id="IconSvg_iconCarrier">
      <defs xmlns="http://www.w3.org/2000/svg">
  <clipPath id="a">
   <path d="m148.09 148.09h503.81v503.81h-503.81z"></path>
  </clipPath>
 </defs>
<g xmlns="http://www.w3.org/2000/svg" clip-path="url(#a)">
  <path d="m398.25 265.35c-77.586 0-140.75 63.109-140.75 140.75 0 77.586 63.109 140.75 140.75 140.75 77.586 0 140.75-63.109 140.75-140.75-0.054688-77.586-63.164-140.75-140.75-140.75zm0 257.84c-64.594 0-117.1-52.555-117.1-117.1 0-64.594 52.555-117.1 117.1-117.1 64.594 0 117.1 52.555 117.1 117.1-0.003906 64.598-52.559 117.1-117.1 117.1zm-11.828-307.8v-55.469c0-6.5234 5.3047-11.828 11.828-11.828s11.828 5.3047 11.828 11.828v55.523c0 6.5234-5.3047 11.828-11.828 11.828-6.5234-0.003907-11.828-5.3594-11.828-11.883zm127.91 54.625c-4.9844-4.2422-5.5703-11.668-1.3242-16.652l36.008-42.215c4.2422-4.9844 11.668-5.5703 16.652-1.3242 4.9844 4.2422 5.5703 11.668 1.3242 16.652l-36.008 42.215c-2.332 2.7578-5.6758 4.1367-8.9609 4.1367-2.7578 0-5.4648-0.90234-7.6914-2.8125zm128.87 108.98-54.836 8.75c-0.63672 0.10547-1.2734 0.16016-1.8555 0.16016-5.6758 0-10.711-4.1367-11.668-9.9688-1.0078-6.418 3.3398-12.516 9.8125-13.523l54.836-8.75c6.418-1.0078 12.516 3.3398 13.523 9.8125 1.0039 6.4688-3.3438 12.512-9.8125 13.52zm-24.766 161.59c-2.2266 3.6602-6.0977 5.6758-10.078 5.6758-2.1211 0-4.2422-0.58203-6.1523-1.75l-47.359-28.957c-5.5703-3.3945-7.3203-10.66-3.9258-16.227 3.3945-5.5703 10.66-7.3203 16.227-3.9258l47.359 28.957c5.5703 3.3945 7.3203 10.66 3.9297 16.227zm-132.43 95.832c2.0156 6.2031-1.3789 12.887-7.5312 14.902-1.2695 0.37109-2.4883 0.58203-3.7109 0.58203-4.9844 0-9.5977-3.1836-11.242-8.1133l-17.234-52.766c-2.0156-6.2031 1.3789-12.887 7.5312-14.902 6.2031-2.0156 12.887 1.3242 14.902 7.5312zm-149.39-49.48-21.105 51.336c-1.8555 4.5625-6.2578 7.3203-10.926 7.3203-1.4844 0-3.0234-0.26562-4.5078-0.90234-6.0469-2.4922-8.9102-9.3867-6.418-15.434l21.105-51.336c2.4922-6.0469 9.3867-8.9102 15.434-6.418 6.0469 2.4961 8.9102 9.3906 6.418 15.434zm-97.527-99.117c2.9688 5.7812 0.6875 12.941-5.0898 15.91l-49.375 25.348c-1.75 0.85156-3.6055 1.2734-5.4102 1.2734-4.2969 0-8.4336-2.332-10.5-6.418-2.9688-5.7812-0.6875-12.941 5.0898-15.91l49.375-25.348c5.832-2.9688 12.941-0.6875 15.91 5.1445zm-29.168-114.07-53.988-12.781c-6.3633-1.4844-10.289-7.8477-8.75-14.211 1.5391-6.3633 7.8477-10.234 14.211-8.75l54.039 12.781c6.3633 1.4844 10.289 7.8477 8.75 14.211-1.2734 5.4102-6.1523 9.0703-11.508 9.0703-0.89844 0-1.8516-0.10547-2.7539-0.32031zm66.078-114.5-32.828-44.758c-3.8711-5.25-2.7031-12.676 2.5469-16.492 5.25-3.8711 12.621-2.7031 16.492 2.5469l32.828 44.758c3.8711 5.25 2.7031 12.676-2.5469 16.492-2.1211 1.5391-4.5625 2.2812-6.9492 2.2812-3.6562-0.003906-7.2617-1.6445-9.543-4.8281z"></path>
 </g>

      </g>
      </svg>